<svg width="18" height="22" viewBox="0 0 18 22" fill="none" xmlns="http://www.w3.org/2000/svg">
<path d="M8.4 0.0199905C3.62 0.32999 0 4.51999 0 9.30999V16C0 17.66 1.34 19 3 19H4C5.1 19 6 18.1 6 17V13C6 11.9 5.1 11 4 11H2V9.28999C2 5.44999 4.96 2.10999 8.79 1.99999C9.72681 1.97174 10.6597 2.13192 11.5335 2.47104C12.4072 2.81017 13.2039 3.32132 13.8764 3.97418C14.5488 4.62704 15.0833 5.4083 15.4481 6.27163C15.8129 7.13496 16.0006 8.06276 16 8.99999V11H14C12.9 11 12 11.9 12 13V17C12 18.1 12.9 19 14 19H16V20H10C9.45 20 9 20.45 9 21C9 21.55 9.45 22 10 22H15C16.66 22 18 20.66 18 19V8.99999C18 3.82999 13.64 -0.32001 8.4 0.0199905Z" fill="white"/>
</svg>
